<svg width="19" height="19" viewBox="0 0 19 19" fill="none" xmlns="http://www.w3.org/2000/svg">
<g clip-path="url(#clip0_37_2687)">
<path d="M19 9.53563C19.0006 9.36334 18.8825 9.20061 18.7273 9.04153C18.4938 8.8036 18.3411 8.49824 18.2908 8.1687C18.2876 8.14725 18.2843 8.12584 18.2809 8.10445C18.2297 7.7746 18.2841 7.43702 18.4362 7.13988C18.5359 6.94366 18.5994 6.75669 18.5484 6.59757C18.4963 6.43521 18.3345 6.31805 18.1382 6.21539C17.8421 6.06163 17.6019 5.81858 17.4516 5.5207C17.4419 5.50131 17.4321 5.48195 17.4222 5.46264C17.2711 5.16467 17.2177 4.82664 17.2698 4.49661C17.3035 4.27885 17.3054 4.08075 17.2069 3.94437C17.108 3.80734 16.919 3.74644 16.7015 3.70966C16.3709 3.65462 16.0661 3.49681 15.8304 3.25866C15.8165 3.2446 15.8026 3.23058 15.7886 3.21661C15.5522 2.97909 15.3967 2.67311 15.3442 2.34216C15.309 2.12439 15.2495 1.9349 15.1132 1.83493C14.9776 1.73544 14.7795 1.73591 14.5615 1.76794C14.2311 1.81753 13.8934 1.76167 13.5966 1.6083C13.5774 1.5983 13.5581 1.58836 13.5388 1.57849C13.242 1.42601 13.0008 1.184 12.8492 0.886765C12.748 0.689696 12.6321 0.526969 12.4701 0.473708C12.3114 0.421514 12.124 0.483644 11.927 0.581857C11.6287 0.731707 11.2908 0.783518 10.9613 0.729896C10.94 0.726364 10.9186 0.722908 10.8972 0.719528C10.568 0.666766 10.2638 0.511774 10.0276 0.276505C9.86968 0.120079 9.70785 0.000766692 9.53555 0.000124675C9.36326 -0.000517341 9.20053 0.117579 9.04143 0.272821C8.8035 0.506314 8.49814 0.659026 8.16859 0.709328C8.14715 0.712545 8.12574 0.715841 8.10435 0.719214C7.7745 0.770369 7.43693 0.716032 7.1398 0.563957C6.94358 0.464277 6.7566 0.400751 6.5975 0.451757C6.43513 0.503806 6.31797 0.665663 6.21531 0.861967C6.06155 1.15806 5.8185 1.39826 5.52062 1.54852C5.50123 1.55825 5.48187 1.56804 5.46255 1.5779C5.16458 1.72905 4.82653 1.78239 4.4965 1.73033C4.27873 1.69667 4.08063 1.69472 3.94425 1.79319C3.80722 1.89214 3.74632 2.08118 3.70954 2.29868C3.65451 2.62922 3.4967 2.93402 3.25855 3.16976C3.24449 3.18363 3.23047 3.19755 3.21649 3.21151C2.97898 3.44789 2.67301 3.60341 2.34206 3.65598C2.12429 3.69114 1.9348 3.75061 1.83483 3.8869C1.73534 4.02254 1.73581 4.22065 1.76784 4.43866C1.81743 4.76906 1.76157 5.10669 1.6082 5.40352C1.59819 5.42276 1.58826 5.44204 1.57839 5.46137C1.42591 5.75812 1.1839 5.99936 0.886665 6.1509C0.6896 6.2521 0.526869 6.36804 0.473608 6.52999C0.421414 6.68872 0.483544 6.87616 0.581757 7.07313C0.731607 7.37139 0.783418 7.70937 0.729796 8.03883C0.726265 8.06019 0.72281 8.08157 0.719431 8.10299C0.666664 8.43215 0.511662 8.73638 0.276382 8.97255C0.119956 9.13047 0.000644622 9.2923 2.60514e-06 9.4646C-0.000639411 9.6369 0.117457 9.79962 0.272703 9.9587C0.506193 10.1966 0.658905 10.502 0.709206 10.8315C0.712426 10.853 0.715722 10.8744 0.719095 10.8958C0.770253 11.2256 0.715914 11.5632 0.563834 11.8604C0.464153 12.0566 0.400628 12.2435 0.451634 12.4027C0.503683 12.565 0.665545 12.6822 0.861849 12.7848C1.15794 12.9386 1.39814 13.1816 1.5484 13.4795C1.55812 13.4989 1.56792 13.5183 1.57778 13.5376C1.72892 13.8356 1.78225 14.1736 1.7302 14.5036C1.69654 14.7214 1.69458 14.9195 1.79306 15.0559C1.892 15.1929 2.08104 15.2538 2.29854 15.2906C2.62909 15.3456 2.93389 15.5034 3.16963 15.7416C3.1835 15.7556 3.19742 15.7697 3.21138 15.7836C3.44775 16.0212 3.60327 16.3271 3.65582 16.6581C3.69098 16.8758 3.75046 17.0653 3.88675 17.1653C4.02239 17.2648 4.2205 17.2643 4.43851 17.2323C4.76891 17.1827 5.10654 17.2386 5.40337 17.3919C5.42261 17.4019 5.4419 17.4119 5.46122 17.4217C5.75797 17.5742 5.99921 17.8162 6.15075 18.1135C6.25194 18.3105 6.36789 18.4733 6.52985 18.5265C6.68857 18.5787 6.87602 18.5166 7.07297 18.4184C7.37124 18.2685 7.70921 18.2167 8.03867 18.2703C8.06003 18.2739 8.08142 18.2773 8.10284 18.2807C8.432 18.3335 8.73622 18.4885 8.97239 18.7237C9.13031 18.8802 9.29214 18.9995 9.46444 19.0001C9.63674 19.0008 9.79946 18.8827 9.95854 18.7274C10.1965 18.4939 10.5019 18.3412 10.8314 18.2909C10.8529 18.2877 10.8743 18.2844 10.8957 18.281C11.2255 18.2299 11.5631 18.2842 11.8603 18.4363C12.0565 18.536 12.2435 18.5995 12.4026 18.5485C12.5649 18.4964 12.6821 18.3346 12.7848 18.1383C12.9385 17.8422 13.1815 17.602 13.4794 17.4517C13.4988 17.442 13.5182 17.4322 13.5375 17.4223C13.8355 17.2712 14.1735 17.2179 14.5035 17.2699C14.7213 17.3036 14.9194 17.3055 15.0558 17.2071C15.1928 17.1081 15.2537 16.9191 15.2905 16.7016C15.3455 16.371 15.5033 16.0662 15.7415 15.8305C15.7555 15.8166 15.7695 15.8027 15.7835 15.7887C16.021 15.5524 16.327 15.3968 16.6579 15.3443C16.8757 15.3091 17.0652 15.2496 17.1652 15.1134C17.2647 14.9777 17.2642 14.7796 17.2322 14.5616C17.1826 14.2312 17.2384 13.8936 17.3918 13.5967C17.4018 13.5775 17.4118 13.5582 17.4216 13.5389C17.5741 13.2421 17.8161 13.0009 18.1134 12.8494C18.3104 12.7482 18.4732 12.6322 18.5264 12.4703C18.5786 12.3115 18.5165 12.1241 18.4183 11.9271C18.2684 11.6289 18.2166 11.2909 18.2702 10.9614C18.2738 10.9401 18.2772 10.9187 18.2806 10.8973C18.3334 10.5681 18.4884 10.2639 18.7236 10.0277C18.88 9.86977 18.9994 9.70793 19 9.53563Z" fill="#9F9F9F"/>
<path d="M14.6791 14.6792C17.5395 11.8188 17.5395 7.1812 14.6791 4.32082C11.8188 1.46044 7.18117 1.46043 4.32078 4.32082C1.4604 7.1812 1.4604 11.8188 4.32078 14.6792C7.18117 17.5396 11.8188 17.5396 14.6791 14.6792Z" fill="white"/>
<path d="M9.62938 0.822401C9.62778 1.25163 9.58299 1.59943 9.52933 1.59922C9.47568 1.59902 9.4335 1.2509 9.4351 0.821676C9.43671 0.39245 9.4802 0.393729 9.53384 0.393931C9.58749 0.394134 9.63098 0.393175 9.62938 0.822401Z" fill="white"/>
<path d="M9.56444 18.1782C9.56604 17.749 9.52386 17.4008 9.4702 17.4006C9.41655 17.4004 9.37177 17.7482 9.37016 18.1775C9.36856 18.6067 9.41205 18.6057 9.4657 18.6059C9.51935 18.6061 9.56282 18.6074 9.56444 18.1782Z" fill="white"/>
<path d="M6.94141 1.20685C7.07252 1.61556 7.13739 1.96018 7.08631 1.97656C7.03522 1.99295 6.88752 1.67491 6.75641 1.26619C6.6253 0.857475 6.66706 0.845257 6.71814 0.828867C6.76922 0.812476 6.81029 0.798131 6.94141 1.20685Z" fill="white"/>
<path d="M12.2433 17.7337C12.1122 17.325 11.9645 17.0069 11.9134 17.0233C11.8624 17.0397 11.9272 17.3843 12.0583 17.793C12.1895 18.2017 12.2305 18.1874 12.2816 18.171C12.3327 18.1546 12.3745 18.1424 12.2433 17.7337Z" fill="white"/>
<path d="M4.50424 2.40361C4.75524 2.75181 4.92343 3.0595 4.8799 3.09088C4.83637 3.12225 4.59763 2.86541 4.34663 2.51721C4.09563 2.16902 4.13157 2.14449 4.17509 2.11313C4.21861 2.08176 4.25325 2.05541 4.50424 2.40361Z" fill="white"/>
<path d="M14.6534 16.4832C14.4024 16.135 14.1637 15.8782 14.1201 15.9096C14.0766 15.9409 14.2448 16.2486 14.4958 16.5968C14.7468 16.945 14.7814 16.9187 14.8249 16.8873C14.8685 16.856 14.9044 16.8314 14.6534 16.4832Z" fill="white"/>
<path d="M2.55589 4.29471C2.9022 4.54831 3.15724 4.78897 3.12555 4.83226C3.09385 4.87554 2.78742 4.70505 2.44111 4.45146C2.0948 4.19787 2.1214 4.16344 2.15309 4.12016C2.18479 4.07688 2.20958 4.04113 2.55589 4.29471Z" fill="white"/>
<path d="M16.5587 14.5484C16.2124 14.2948 15.9059 14.1243 15.8742 14.1676C15.8426 14.2109 16.0976 14.4515 16.4439 14.7051C16.7902 14.9588 16.815 14.923 16.8467 14.8797C16.8784 14.8364 16.905 14.802 16.5587 14.5484Z" fill="white"/>
<path d="M1.28723 6.69493C1.69495 6.8291 2.01188 6.97917 1.99511 7.03013C1.97834 7.08109 1.63422 7.01364 1.2265 6.87948C0.818778 6.74531 0.833434 6.70435 0.850203 6.65339C0.866971 6.60242 0.879506 6.56077 1.28723 6.69493Z" fill="white"/>
<path d="M17.7732 12.1201C17.3654 11.9859 17.0213 11.9184 17.0045 11.9694C16.9878 12.0204 17.3047 12.1704 17.7124 12.3046C18.1201 12.4388 18.1327 12.3971 18.1495 12.3461C18.1662 12.2952 18.1809 12.2542 17.7732 12.1201Z" fill="white"/>
<path d="M0.822528 9.37016C1.25175 9.37177 1.59955 9.41656 1.59935 9.4702C1.59915 9.52385 1.25103 9.56604 0.821801 9.56444C0.392575 9.56283 0.393854 9.51935 0.394053 9.4657C0.394252 9.41205 0.393301 9.36856 0.822528 9.37016Z" fill="white"/>
<path d="M18.1779 9.4351C17.7487 9.4335 17.4006 9.47569 17.4004 9.52934C17.4002 9.58299 17.748 9.62778 18.1772 9.62938C18.6064 9.63099 18.6055 9.58749 18.6057 9.53384C18.6059 9.4802 18.6072 9.43671 18.1779 9.4351Z" fill="white"/>
<path d="M1.20697 12.0583C1.61568 11.9272 1.9603 11.8624 1.97668 11.9134C1.99307 11.9645 1.67502 12.1122 1.26631 12.2433C0.857599 12.3745 0.845374 12.3327 0.828987 12.2816C0.812601 12.2305 0.798251 12.1895 1.20697 12.0583Z" fill="white"/>
<path d="M17.7334 6.75666C17.3247 6.88777 17.0067 7.03547 17.0231 7.08656C17.0395 7.13764 17.3841 7.07276 17.7928 6.94165C18.2015 6.81054 18.1872 6.76947 18.1708 6.71838C18.1544 6.6673 18.1422 6.62554 17.7334 6.75666Z" fill="white"/>
<path d="M2.40374 14.4958C2.75193 14.2448 3.05963 14.0766 3.091 14.1201C3.12238 14.1637 2.86553 14.4024 2.51734 14.6534C2.16915 14.9044 2.14462 14.8685 2.11325 14.8249C2.08188 14.7814 2.05554 14.7468 2.40374 14.4958Z" fill="white"/>
<path d="M16.483 4.3465C16.1348 4.59749 15.878 4.83625 15.9093 4.87977C15.9407 4.92329 16.2484 4.75509 16.5966 4.50411C16.9448 4.25313 16.9185 4.21849 16.8871 4.17497C16.8557 4.13145 16.8312 4.09551 16.483 4.3465Z" fill="white"/>
<path d="M4.2946 16.4439C4.54819 16.0976 4.78886 15.8425 4.83215 15.8742C4.87543 15.9059 4.70494 16.2124 4.45135 16.5587C4.19776 16.905 4.16333 16.8784 4.12004 16.8467C4.07676 16.815 4.04099 16.7902 4.2946 16.4439Z" fill="white"/>
<path d="M14.5486 2.44098C14.295 2.78729 14.1246 3.09372 14.1678 3.12541C14.2111 3.1571 14.4518 2.90206 14.7054 2.55576C14.959 2.20945 14.9232 2.18465 14.8799 2.15297C14.8367 2.12128 14.8022 2.09467 14.5486 2.44098Z" fill="white"/>
<path d="M6.69518 17.7127C6.82934 17.3049 6.97941 16.988 7.03037 17.0048C7.08133 17.0216 7.01388 17.3657 6.87972 17.7734C6.74556 18.1811 6.7046 18.1665 6.65363 18.1497C6.60267 18.1329 6.56101 18.1204 6.69518 17.7127Z" fill="white"/>
<path d="M12.1198 1.22638C11.9856 1.6341 11.9182 1.97822 11.9692 1.99499C12.0201 2.01176 12.1702 1.69483 12.3044 1.2871C12.4385 0.879381 12.3969 0.86685 12.3459 0.850081C12.2949 0.833312 12.254 0.818653 12.1198 1.22638Z" fill="white"/>
<path d="M14.4072 14.4071C17.1173 11.697 17.1173 7.30303 14.4072 4.59293C11.6971 1.88283 7.3032 1.88283 4.5931 4.59293C1.883 7.30303 1.883 11.697 4.5931 14.4071C7.3032 17.1172 11.6971 17.1172 14.4072 14.4071Z" fill="#9F9F9F"/>
</g>
<defs>
<clipPath id="clip0_37_2687">
<rect width="19" height="19" fill="white"/>
</clipPath>
</defs>
</svg>
