<svg width="179" height="179" viewBox="0 0 179 179" fill="none" xmlns="http://www.w3.org/2000/svg">
<g clip-path="url(#clip0_37_1383)">
<path d="M179 89.8347C179.006 88.2115 177.893 86.6784 176.431 85.1797C174.231 82.9382 172.792 80.0613 172.319 76.9567C172.288 76.7547 172.257 76.5529 172.225 76.3514C171.743 73.2439 172.255 70.0635 173.688 67.2641C174.627 65.4156 175.226 63.6541 174.745 62.1551C174.255 60.6255 172.73 59.5217 170.881 58.5545C168.091 57.1059 165.828 54.8162 164.412 52.0098C164.321 51.8271 164.229 51.6447 164.136 51.4628C162.712 48.6556 162.209 45.471 162.7 42.3618C163.017 40.3103 163.035 38.4439 162.108 37.1591C161.175 35.8681 159.394 35.2944 157.345 34.9479C154.231 34.4294 151.36 32.9426 149.139 30.699C149.008 30.5665 148.877 30.4344 148.746 30.3028C146.519 28.0651 145.053 25.1825 144.558 22.0646C144.227 20.013 143.667 18.2278 142.383 17.286C141.105 16.3486 139.238 16.3531 137.184 16.6548C134.072 17.122 130.891 16.5957 128.094 15.1508C127.913 15.0566 127.732 14.963 127.549 14.87C124.754 13.4334 122.481 11.1535 121.053 8.35323C120.1 6.49664 119.008 4.96357 117.482 4.4618C115.986 3.97007 114.221 4.5554 112.365 5.48068C109.555 6.89242 106.371 7.38053 103.267 6.87536C103.066 6.84209 102.864 6.80953 102.663 6.77768C99.5616 6.28061 96.6955 4.82042 94.4705 2.60394C92.9828 1.13024 91.4581 0.00619509 89.835 0.000146613C88.2118 -0.00590186 86.6787 1.10669 85.1798 2.56924C82.9382 4.76898 80.0614 6.20769 76.9567 6.68159C76.7548 6.7119 76.553 6.74295 76.3515 6.77472C73.244 7.25666 70.0637 6.74475 67.2644 5.31204C65.4158 4.37295 63.6543 3.77447 62.1553 4.255C60.6257 4.74536 59.5219 6.27022 58.5547 8.11961C57.1062 10.9091 54.8164 13.172 52.01 14.5877C51.8273 14.6793 51.645 14.7716 51.463 14.8644C48.6558 16.2885 45.471 16.791 42.3617 16.3005C40.3102 15.9834 38.4439 15.965 37.159 16.8927C35.868 17.8249 35.2943 19.6058 34.9478 21.6549C34.4293 24.769 32.9426 27.6406 30.699 29.8615C30.5665 29.9922 30.4344 30.1233 30.3027 30.2548C28.0651 32.4818 25.1825 33.9469 22.0647 34.4421C20.013 34.7734 18.2278 35.3337 17.286 36.6177C16.3487 37.8955 16.3531 39.762 16.6549 41.8158C17.1221 44.9286 16.5958 48.1094 15.1509 50.9058C15.0567 51.0871 14.963 51.2687 14.8701 51.4508C13.4335 54.2465 11.1536 56.5192 8.35332 57.9469C6.49676 58.9003 4.96366 59.9926 4.46189 61.5184C3.97016 63.0138 4.55549 64.7797 5.48076 66.6353C6.89251 69.4452 7.38062 72.6293 6.87544 75.7332C6.84218 75.9344 6.80963 76.1359 6.7778 76.3376C6.28068 79.4387 4.82039 82.3048 2.60381 84.5299C1.13011 86.0176 0.00607301 87.5422 2.45432e-05 89.1655C-0.00602393 90.7887 1.10657 92.3217 2.56915 93.8204C4.76887 96.062 6.20758 98.9388 6.68146 102.043C6.7118 102.245 6.74286 102.447 6.77464 102.649C7.25659 105.756 6.74466 108.937 5.31191 111.736C4.37281 113.585 3.77434 115.346 4.25487 116.845C4.74522 118.375 6.27013 119.478 8.11952 120.446C10.909 121.894 13.1719 124.184 14.5876 126.99C14.6792 127.173 14.7714 127.355 14.8643 127.537C16.2882 130.344 16.7907 133.529 16.3003 136.638C15.9831 138.69 15.9648 140.556 16.8925 141.841C17.8247 143.132 19.6056 143.706 21.6547 144.052C24.7688 144.571 27.6403 146.058 29.8613 148.301C29.992 148.434 30.1231 148.566 30.2546 148.697C32.4815 150.935 33.9466 153.818 34.4417 156.936C34.7729 158.987 35.3333 160.772 36.6173 161.714C37.8951 162.652 39.7616 162.647 41.8154 162.345C44.9282 161.878 48.109 162.404 50.9054 163.849C51.0867 163.944 51.2684 164.037 51.4504 164.13C54.2461 165.567 56.5188 167.847 57.9465 170.647C58.8999 172.504 59.9922 174.037 61.518 174.538C63.0134 175.03 64.7793 174.445 66.6348 173.52C69.4448 172.108 72.6289 171.62 75.7327 172.125C75.934 172.158 76.1355 172.191 76.3372 172.222C79.4383 172.72 82.3044 174.18 84.5294 176.396C86.0171 177.87 87.5418 178.994 89.165 179C90.7882 179.006 92.3212 177.893 93.8199 176.431C96.0617 174.231 98.9387 172.792 102.044 172.319C102.246 172.288 102.447 172.257 102.649 172.226C105.756 171.744 108.937 172.256 111.736 173.688C113.585 174.627 115.346 175.226 116.845 174.745C118.375 174.255 119.479 172.73 120.446 170.881C121.894 168.091 124.184 165.828 126.99 164.412C127.173 164.321 127.355 164.229 127.537 164.136C130.345 162.712 133.529 162.209 136.638 162.7C138.69 163.017 140.556 163.035 141.841 162.108C143.132 161.175 143.706 159.394 144.052 157.345C144.571 154.231 146.057 151.36 148.301 149.139C148.434 149.008 148.566 148.877 148.697 148.746C150.935 146.519 153.818 145.053 156.935 144.558C158.987 144.227 160.772 143.667 161.714 142.383C162.651 141.105 162.647 139.238 162.345 137.184C161.878 134.072 162.404 130.891 163.849 128.095C163.943 127.913 164.037 127.732 164.13 127.55C165.567 124.754 167.847 122.481 170.647 121.053C172.504 120.1 174.037 119.008 174.538 117.482C175.03 115.987 174.445 114.221 173.52 112.365C172.108 109.555 171.62 106.371 172.125 103.267C172.158 103.066 172.191 102.864 172.222 102.663C172.72 99.5616 174.18 96.6956 176.396 94.4705C177.87 92.9826 178.994 91.4579 179 89.8347Z" fill="#FF473D"/>
<path d="M138.293 138.293C165.241 111.346 165.241 67.6545 138.293 40.7067C111.345 13.7588 67.6543 13.7588 40.7064 40.7066C13.7586 67.6545 13.7586 111.346 40.7064 138.293C67.6543 165.241 111.345 165.241 138.293 138.293Z" fill="white"/>
<path d="M90.7209 7.74743C90.7057 11.7912 90.2838 15.0678 89.7783 15.0659C89.2729 15.064 88.8754 11.7844 88.8906 7.7406C88.9057 3.69683 89.3154 3.70888 89.8208 3.71079C90.3262 3.7127 90.736 3.70367 90.7209 7.74743Z" fill="white"/>
<path d="M90.1095 171.259C90.1246 167.216 89.7272 163.936 89.2217 163.934C88.7163 163.932 88.2943 167.209 88.2792 171.253C88.2641 175.296 88.6739 175.287 89.1793 175.289C89.6847 175.291 90.0943 175.303 90.1095 171.259Z" fill="white"/>
<path d="M65.3979 11.3714C66.6331 15.222 67.2443 18.4686 66.7631 18.623C66.2818 18.7773 64.8903 15.781 63.6551 11.9305C62.4199 8.07996 62.8133 7.96486 63.2945 7.81045C63.7758 7.65603 64.1627 7.52088 65.3979 11.3714Z" fill="white"/>
<path d="M115.345 167.069C114.109 163.219 112.718 160.223 112.237 160.377C111.755 160.531 112.367 163.778 113.602 167.628C114.837 171.479 115.224 171.344 115.705 171.189C116.187 171.035 116.58 170.92 115.345 167.069Z" fill="white"/>
<path d="M42.4345 22.6432C44.7991 25.9236 46.3836 28.8224 45.9736 29.118C45.5635 29.4135 43.3142 26.9938 40.9496 23.7135C38.5849 20.4332 38.9235 20.2021 39.3335 19.9065C39.7435 19.611 40.0698 19.3628 42.4345 22.6432Z" fill="white"/>
<path d="M138.05 155.286C135.685 152.006 133.436 149.586 133.026 149.882C132.616 150.178 134.201 153.076 136.565 156.357C138.93 159.637 139.256 159.389 139.666 159.093C140.076 158.798 140.415 158.567 138.05 155.286Z" fill="white"/>
<path d="M24.0783 40.4594C27.3409 42.8485 29.7437 45.1159 29.4451 45.5236C29.1465 45.9314 26.2596 44.3253 22.997 41.9362C19.7344 39.547 19.985 39.2227 20.2836 38.8149C20.5822 38.4072 20.8157 38.0703 24.0783 40.4594Z" fill="white"/>
<path d="M156.003 137.064C152.74 134.675 149.853 133.069 149.555 133.476C149.256 133.884 151.659 136.151 154.922 138.541C158.184 140.93 158.418 140.593 158.716 140.185C159.015 139.777 159.266 139.453 156.003 137.064Z" fill="white"/>
<path d="M12.1258 63.0761C15.967 64.34 18.9528 65.7539 18.7948 66.234C18.6368 66.7141 15.3948 66.0786 11.5537 64.8147C7.71249 63.5507 7.85056 63.1648 8.00854 62.6847C8.16652 62.2045 8.28462 61.8121 12.1258 63.0761Z" fill="white"/>
<path d="M167.446 114.185C163.605 112.921 160.363 112.286 160.205 112.766C160.047 113.246 163.033 114.66 166.874 115.924C170.715 117.188 170.834 116.795 170.991 116.315C171.149 115.835 171.287 115.449 167.446 114.185Z" fill="white"/>
<path d="M7.74723 88.2792C11.791 88.2943 15.0676 88.7163 15.0657 89.2217C15.0638 89.7271 11.7841 90.1246 7.74038 90.1095C3.69662 90.0944 3.70867 89.6847 3.71055 89.1793C3.71242 88.6739 3.70346 88.2641 7.74723 88.2792Z" fill="white"/>
<path d="M171.259 88.8906C167.216 88.8754 163.936 89.2729 163.934 89.7783C163.932 90.2838 167.209 90.7057 171.253 90.7209C175.296 90.736 175.287 90.3262 175.289 89.8208C175.291 89.3154 175.303 88.9057 171.259 88.8906Z" fill="white"/>
<path d="M11.3716 113.602C15.2221 112.367 18.4688 111.755 18.6232 112.237C18.7776 112.718 15.7812 114.109 11.9307 115.345C8.08023 116.58 7.96506 116.187 7.81068 115.705C7.6563 115.224 7.52111 114.837 11.3716 113.602Z" fill="white"/>
<path d="M167.069 63.6554C163.219 64.8906 160.222 66.2821 160.377 66.7633C160.531 67.2446 163.778 66.6334 167.628 65.3982C171.479 64.163 171.344 63.776 171.189 63.2948C171.035 62.8135 170.92 62.4201 167.069 63.6554Z" fill="white"/>
<path d="M22.643 136.565C25.9234 134.201 28.8222 132.616 29.1178 133.026C29.4134 133.436 26.9936 135.685 23.7133 138.05C20.433 140.415 20.2019 140.076 19.9063 139.666C19.6108 139.256 19.3626 138.93 22.643 136.565Z" fill="white"/>
<path d="M155.286 40.95C152.006 43.3146 149.586 45.5639 149.882 45.9739C150.177 46.3839 153.076 44.7994 156.357 42.4349C159.637 40.0703 159.389 39.744 159.093 39.334C158.798 38.924 158.567 38.5854 155.286 40.95Z" fill="white"/>
<path d="M40.4595 154.922C42.8486 151.659 45.1159 149.256 45.5237 149.555C45.9315 149.853 44.3254 152.74 41.9362 156.003C39.5471 159.266 39.2228 159.015 38.815 158.716C38.4072 158.418 38.0703 158.184 40.4595 154.922Z" fill="white"/>
<path d="M137.064 22.997C134.675 26.2596 133.069 29.1465 133.476 29.4451C133.884 29.7437 136.151 27.3409 138.541 24.0784C140.93 20.8158 140.593 20.5822 140.185 20.2837C139.777 19.9852 139.453 19.7345 137.064 22.997Z" fill="white"/>
<path d="M63.0758 166.874C64.3398 163.033 65.7536 160.047 66.2337 160.205C66.7138 160.363 66.0784 163.605 64.8144 167.446C63.5505 171.287 63.1646 171.149 62.6844 170.991C62.2043 170.833 61.8118 170.715 63.0758 166.874Z" fill="white"/>
<path d="M114.185 11.5539C112.921 15.3951 112.286 18.637 112.766 18.795C113.246 18.953 114.66 15.9672 115.924 12.126C117.188 8.28483 116.796 8.16677 116.315 8.00879C115.835 7.85081 115.449 7.7127 114.185 11.5539Z" fill="white"/>
<path d="M135.73 135.73C161.262 110.198 161.262 68.8022 135.73 43.2702C110.198 17.7382 68.8023 17.7382 43.2703 43.2702C17.7383 68.8022 17.7383 110.198 43.2703 135.73C68.8023 161.262 110.198 161.262 135.73 135.73Z" fill="#FF473D"/>
</g>
<defs>
<clipPath id="clip0_37_1383">
<rect width="179" height="179" fill="white"/>
</clipPath>
</defs>
</svg>
